<svg width="20" height="20" viewBox="0 0 20 20" fill="none" xmlns="http://www.w3.org/2000/svg">
<g clip-path="url(#clip0_6_3014)">
<g clip-path="url(#clip1_6_3014)">
<path d="M17.2812 8.12632C17.0008 7.83317 16.7106 7.53108 16.6011 7.26547C16.5 7.02216 16.494 6.61888 16.4881 6.22826C16.477 5.50207 16.465 4.67915 15.8929 4.10698C15.3207 3.53481 14.4978 3.5229 13.7716 3.51174C13.381 3.50579 12.9777 3.49984 12.7344 3.39865C12.4695 3.28928 12.1667 2.99909 11.8735 2.71859C11.3601 2.22528 10.7768 1.6665 10 1.6665C9.22321 1.6665 8.64063 2.22528 8.12648 2.71859C7.83333 2.99909 7.53125 3.28928 7.26563 3.39865C7.02381 3.49984 6.61905 3.50579 6.22842 3.51174C5.50223 3.5229 4.67931 3.53481 4.10714 4.10698C3.53497 4.67915 3.52678 5.50207 3.5119 6.22826C3.50595 6.61888 3.5 7.02216 3.39881 7.26547C3.28944 7.53034 2.99926 7.83317 2.71875 8.12632C2.22545 8.63972 1.66667 9.22305 1.66667 9.99984C1.66667 10.7766 2.22545 11.3592 2.71875 11.8734C2.99926 12.1665 3.28944 12.4686 3.39881 12.7342C3.5 12.9776 3.50595 13.3808 3.5119 13.7715C3.52307 14.4976 3.53497 15.3205 4.10714 15.8927C4.67931 16.4649 5.50223 16.4768 6.22842 16.4879C6.61905 16.4938 7.02232 16.4998 7.26563 16.601C7.5305 16.7104 7.83333 17.0006 8.12648 17.2811C8.63988 17.7744 9.22321 18.3332 10 18.3332C10.7768 18.3332 11.3593 17.7744 11.8735 17.2811C12.1667 17.0006 12.4688 16.7104 12.7344 16.601C12.9777 16.4998 13.381 16.4938 13.7716 16.4879C14.4978 16.4768 15.3207 16.4649 15.8929 15.8927C16.465 15.3205 16.477 14.4976 16.4881 13.7715C16.494 13.3808 16.5 12.9776 16.6011 12.7342C16.7106 12.4694 17.0008 12.1665 17.2812 11.8734C17.7746 11.3599 18.3333 10.7766 18.3333 9.99984C18.3333 9.22305 17.7746 8.64047 17.2812 8.12632ZM13.3973 8.63526L9.23066 12.8019C9.17537 12.8573 9.10972 12.9012 9.03747 12.9312C8.9652 12.9611 8.88774 12.9765 8.80952 12.9765C8.7313 12.9765 8.65385 12.9611 8.58158 12.9312C8.50932 12.9012 8.44368 12.8573 8.38839 12.8019L6.60267 11.0162C6.49099 10.9045 6.42824 10.7531 6.42824 10.5951C6.42824 10.4371 6.49099 10.2856 6.60267 10.1739C6.71437 10.0622 6.86586 9.9995 7.02381 9.9995C7.18176 9.9995 7.33325 10.0622 7.44494 10.1739L8.80952 11.5393L12.555 7.79299C12.6104 7.73768 12.676 7.69382 12.7483 7.66388C12.8206 7.63396 12.898 7.61855 12.9762 7.61855C13.0544 7.61855 13.1318 7.63396 13.2041 7.66388C13.2764 7.69382 13.342 7.73768 13.3973 7.79299C13.4527 7.84829 13.4965 7.91395 13.5264 7.98621C13.5564 8.05847 13.5717 8.13591 13.5717 8.21412C13.5717 8.29233 13.5564 8.36978 13.5264 8.44204C13.4965 8.51429 13.4527 8.57995 13.3973 8.63526Z" fill="#2563EB"/>
</g>
</g>
<defs>
<clipPath id="clip0_6_3014">
<rect width="20" height="20" fill="white"/>
</clipPath>
<clipPath id="clip1_6_3014">
<rect width="20" height="20" fill="white"/>
</clipPath>
</defs>
</svg>
